<?xml version="1.0" encoding="UTF-8" standalone="no"?>
<!-- Created with Inkscape (http://www.inkscape.org/) -->

<svg
   xmlns:dc="http://purl.org/dc/elements/1.1/"
   xmlns:cc="http://creativecommons.org/ns#"
   xmlns:rdf="http://www.w3.org/1999/02/22-rdf-syntax-ns#"
   xmlns:svg="http://www.w3.org/2000/svg"
   xmlns="http://www.w3.org/2000/svg"
   xmlns:sodipodi="http://sodipodi.sourceforge.net/DTD/sodipodi-0.dtd"
   xmlns:inkscape="http://www.inkscape.org/namespaces/inkscape"
   width="1122.5197"
   height="793.70081"
   viewBox="0 0 296.99998 210.00001"
   version="1.1"
   id="svg8"
   inkscape:version="0.92.2 5c3e80d, 2017-08-06"
   sodipodi:docname="logo-fonts-paths.svg">
  <defs
     id="defs2" />
  <sodipodi:namedview
     id="base"
     pagecolor="#ffffff"
     bordercolor="#666666"
     borderopacity="1.0"
     inkscape:pageopacity="0.0"
     inkscape:pageshadow="2"
     inkscape:zoom="2"
     inkscape:cx="690.34459"
     inkscape:cy="316.05471"
     inkscape:document-units="px"
     inkscape:current-layer="layer1"
     showgrid="false"
     units="px"
     showborder="false"
     fit-margin-top="20"
     fit-margin-left="20"
     fit-margin-right="20"
     fit-margin-bottom="20"
     inkscape:pagecheckerboard="true" />
  <metadata
     id="metadata5">
    <rdf:RDF>
      <cc:Work
         rdf:about="">
        <dc:format>image/svg+xml</dc:format>
        <dc:type
           rdf:resource="http://purl.org/dc/dcmitype/StillImage" />
        <dc:title></dc:title>
      </cc:Work>
    </rdf:RDF>
  </metadata>
  <g
     inkscape:label="Layer 1"
     inkscape:groupmode="layer"
     id="layer1"
     transform="translate(0,-86.999992)">
    <rect
       style="opacity:1;vector-effect:none;fill:none;fill-opacity:1;stroke:none;stroke-width:0.26458332;stroke-linecap:round;stroke-linejoin:round;stroke-miterlimit:4;stroke-dasharray:2.11666664, 1.05833332;stroke-dashoffset:0;stroke-opacity:1;paint-order:stroke fill markers"
       id="rect818"
       width="71.569794"
       height="71.569794"
       x="112.72498"
       y="135.29277"
       inkscape:export-xdpi="300"
       inkscape:export-ydpi="300" />
    <g
       aria-label="Sci
Prog"
       style="font-style:normal;font-weight:normal;font-size:4.93888855px;line-height:100%;font-family:sans-serif;text-align:end;letter-spacing:0px;word-spacing:0px;text-anchor:end;fill:#ffffff;fill-opacity:1;stroke:none;stroke-width:0.26458332px;stroke-linecap:butt;stroke-linejoin:miter;stroke-opacity:1"
       id="text814">
      <path
         d="m 140.1867,167.47986 c 4.2672,0 6.604,-2.4892 6.604,-5.2832 0,-2.286 -1.27,-3.7084 -3.4798,-4.5212 l -1.905,-0.7874 c -1.651,-0.6096 -2.5908,-0.889 -2.5908,-1.651 0,-0.762 0.6604,-1.1176 1.6256,-1.1176 1.5748,0 2.5146,0.4064 3.7084,1.1938 l 2.1844,-2.7432 c -1.6002,-1.4986 -3.683,-2.2098 -5.6388,-2.2098 -3.7592,0 -6.2992,2.3114 -6.2992,5.1308 0,2.3876 1.5748,3.8862 3.4798,4.5974 l 2.0574,0.8636 c 1.524,0.635 2.3876,0.8382 2.3876,1.8034 0,0.5334 -0.508,0.9652 -1.8288,0.9652 -1.4986,0 -2.9718,-0.6604 -4.2164,-1.6002 l -2.4892,2.9972 c 1.8542,1.6002 4.2418,2.3622 6.4008,2.3622 z"
         style="font-style:normal;font-variant:normal;font-weight:900;font-stretch:normal;font-size:25.39999962px;line-height:80.00000119%;font-family:'Source Code Pro';-inkscape-font-specification:'Source Code Pro Heavy';text-align:end;letter-spacing:-2.11666656px;text-anchor:end;fill:#ffffff;fill-opacity:1;stroke-width:0.26458332px"
         id="path823" />
      <path
         d="m 154.46851,167.47986 c 1.6764,0 3.7084,-0.5334 5.2832,-1.8288 l -1.7272,-2.7432 c -0.8636,0.5334 -1.8796,1.0668 -3.1242,1.0668 -1.778,0 -3.0734,-1.2192 -3.0734,-3.1496 0,-1.9304 1.3208,-3.1496 3.2258,-3.1496 0.8128,0 1.6256,0.2286 2.5654,0.8636 l 1.9812,-2.6924 c -1.0668,-1.016 -2.8194,-1.6764 -4.8006,-1.6764 -3.937,0 -7.4422,2.4384 -7.4422,6.6548 0,4.2164 3.0988,6.6548 7.112,6.6548 z"
         style="font-style:normal;font-variant:normal;font-weight:900;font-stretch:normal;font-size:25.39999962px;line-height:80.00000119%;font-family:'Source Code Pro';-inkscape-font-specification:'Source Code Pro Heavy';text-align:end;letter-spacing:-2.11666656px;text-anchor:end;fill:#ffffff;fill-opacity:1;stroke-width:0.26458332px"
         id="path825" />
      <path
         d="m 165.60072,167.17506 h 4.3688 v -12.7 h -9.1948 v 3.4036 h 4.826 z m 2.032,-14.4272 c 1.6256,0 2.794,-1.016 2.794,-2.54 0,-1.524 -1.1684,-2.5908 -2.794,-2.5908 -1.6256,0 -2.794,1.0668 -2.794,2.5908 0,1.524 1.1684,2.54 2.794,2.54 z"
         style="font-style:normal;font-variant:normal;font-weight:900;font-stretch:normal;font-size:25.39999962px;line-height:80.00000119%;font-family:'Source Code Pro';-inkscape-font-specification:'Source Code Pro Heavy';text-align:end;letter-spacing:-2.11666656px;text-anchor:end;fill:#ffffff;fill-opacity:1;stroke-width:0.26458332px"
         id="path827" />
      <path
         d="m 121.18049,187.49506 h 4.3688 v -5.2324 h 1.8288 c 3.4544,0 6.604,-1.7526 6.604,-5.7912 0,-4.1656 -3.048,-5.4864 -6.604,-5.4864 h -6.1976 z m 4.3688,-8.6868 v -4.3688 h 1.6256 c 1.6256,0 2.54,0.5588 2.54,2.032 0,1.4732 -0.8128,2.3368 -2.54,2.3368 z"
         style="font-style:normal;font-variant:normal;font-weight:900;font-stretch:normal;font-size:25.39999962px;line-height:80.00000119%;font-family:'Source Code Pro';-inkscape-font-specification:'Source Code Pro Heavy';text-align:end;letter-spacing:-2.11666656px;text-anchor:end;fill:#ffffff;fill-opacity:1;stroke-width:0.26458332px"
         id="path829" />
      <path
         d="m 135.3099,187.49506 h 4.3688 v -6.2992 c 0.9398,-2.1336 2.4892,-2.8956 3.937,-2.8956 0.9144,0 1.4478,0.127 2.2098,0.3556 l 0.8636,-3.6576 c -0.7112,-0.3048 -1.2446,-0.508 -2.413,-0.508 -1.905,0 -3.7338,0.9144 -4.953,2.9972 h -0.1016 l -0.3302,-2.6924 h -3.5814 z"
         style="font-style:normal;font-variant:normal;font-weight:900;font-stretch:normal;font-size:25.39999962px;line-height:80.00000119%;font-family:'Source Code Pro';-inkscape-font-specification:'Source Code Pro Heavy';text-align:end;letter-spacing:-2.11666656px;text-anchor:end;fill:#ffffff;fill-opacity:1;stroke-width:0.26458332px"
         id="path831" />
      <path
         d="m 153.40171,187.79986 c 3.3528,0 6.5532,-2.4384 6.5532,-6.6548 0,-4.2164 -3.2004,-6.6548 -6.5532,-6.6548 -3.3528,0 -6.5532,2.4384 -6.5532,6.6548 0,4.2164 3.2004,6.6548 6.5532,6.6548 z m 0,-3.5052 c -1.4732,0 -2.0828,-1.2192 -2.0828,-3.1496 0,-1.9304 0.6096,-3.1496 2.0828,-3.1496 1.4732,0 2.0828,1.2192 2.0828,3.1496 0,1.9304 -0.6096,3.1496 -2.0828,3.1496 z"
         style="font-style:normal;font-variant:normal;font-weight:900;font-stretch:normal;font-size:25.39999962px;line-height:80.00000119%;font-family:'Source Code Pro';-inkscape-font-specification:'Source Code Pro Heavy';text-align:end;letter-spacing:-2.11666656px;text-anchor:end;fill:#ffffff;fill-opacity:1;stroke-width:0.26458332px"
         id="path833" />
      <path
         d="m 165.72772,192.72746 c 4.7498,0 7.7724,-1.8796 7.7724,-4.6228 0,-2.3368 -1.9304,-3.302 -5.2832,-3.302 h -2.159 c -1.4224,0 -1.9812,-0.2032 -1.9812,-0.762 0,-0.3556 0.1016,-0.508 0.4064,-0.7366 0.6096,0.127 1.143,0.1778 1.6002,0.1778 3.0226,0 5.3594,-1.2192 5.3594,-4.2164 0,-0.508 -0.1778,-1.016 -0.3556,-1.3208 h 2.286 v -3.1496 h -5.1308 c -0.635,-0.2032 -1.397,-0.3048 -2.159,-0.3048 -2.9464,0 -5.6134,1.4732 -5.6134,4.6228 0,1.4732 0.762,2.6416 1.7272,3.2512 v 0.1016 c -0.889,0.6096 -1.524,1.524 -1.524,2.3876 0,1.0668 0.5588,1.7272 1.27,2.1844 v 0.1016 c -1.27,0.6096 -1.9304,1.397 -1.9304,2.4384 0,2.286 2.5654,3.1496 5.715,3.1496 z m 0.3556,-11.8364 c -0.8382,0 -1.524,-0.5588 -1.524,-1.778 0,-1.1684 0.6858,-1.7272 1.524,-1.7272 0.8382,0 1.5494,0.5588 1.5494,1.7272 0,1.2192 -0.7112,1.778 -1.5494,1.778 z m 0.3302,9.144 c -1.7018,0 -2.8702,-0.3556 -2.8702,-1.1684 0,-0.3556 0.2032,-0.6096 0.635,-0.9144 0.4318,0.1016 0.9398,0.1524 1.9304,0.1524 h 1.27 c 1.27,0 1.9812,0.1016 1.9812,0.762 0,0.7112 -1.2446,1.1684 -2.9464,1.1684 z"
         style="font-style:normal;font-variant:normal;font-weight:900;font-stretch:normal;font-size:25.39999962px;line-height:80.00000119%;font-family:'Source Code Pro';-inkscape-font-specification:'Source Code Pro Heavy';text-align:end;letter-spacing:-2.11666656px;text-anchor:end;fill:#ffffff;fill-opacity:1;stroke-width:0.26458332px"
         id="path835" />
    </g>
    <g
       aria-label="Un blog de programación científica
enfocado en high performance computing "
       style="font-style:normal;font-weight:normal;font-size:4.93888855px;line-height:125%;font-family:sans-serif;text-align:center;letter-spacing:0px;word-spacing:0px;text-anchor:middle;fill:#ffffff;fill-opacity:1;stroke:none;stroke-width:0.26458332px;stroke-linecap:butt;stroke-linejoin:miter;stroke-opacity:1"
       id="text867">
      <path
         d="m 99.492105,241.4729 c 0.711195,0 1.121125,-0.40993 1.121125,-1.29399 v -1.99531 h -0.54821 v 2.03976 c 0,0.52846 -0.222254,0.75071 -0.572915,0.75071 -0.345722,0 -0.558095,-0.22225 -0.558095,-0.75071 v -2.03976 h -0.572911 v 1.99531 c 0,0.88406 0.424745,1.29399 1.131006,1.29399 z"
         style="font-style:normal;font-variant:normal;font-weight:600;font-stretch:normal;font-family:'Source Code Pro';-inkscape-font-specification:'Source Code Pro Semi-Bold';text-align:center;text-anchor:middle;fill:#ffffff;stroke:none;stroke-width:0.26458332px"
         id="path857" />
      <path
         d="m 101.37189,241.41364 h 0.57291 v -1.65453 c 0.22225,-0.22719 0.38524,-0.34079 0.6223,-0.34079 0.33091,0 0.45438,0.1778 0.45438,0.56798 v 1.42734 h 0.57291 v -1.50143 c 0,-0.62724 -0.25682,-0.98284 -0.81491,-0.98284 -0.37042,0 -0.647,0.19262 -0.87419,0.42475 h -0.0197 l -0.0445,-0.36548 h -0.4692 z"
         style="font-style:normal;font-variant:normal;font-weight:600;font-stretch:normal;font-family:'Source Code Pro';-inkscape-font-specification:'Source Code Pro Semi-Bold';text-align:center;text-anchor:middle;fill:#ffffff;stroke:none;stroke-width:0.26458332px"
         id="path859" />
      <path
         d="m 108.51461,241.4729 c 0.55809,0 1.07667,-0.47907 1.07667,-1.31374 0,-0.74577 -0.36547,-1.22979 -0.99271,-1.22979 -0.26176,0 -0.53834,0.12348 -0.74084,0.32103 h -0.0148 l 0.0247,-0.42474 v -0.89888 h -0.57291 v 3.48686 h 0.44944 l 0.0494,-0.2667 h 0.0148 c 0.21238,0.20743 0.47908,0.32596 0.70627,0.32596 z m -0.1136,-0.46919 c -0.1531,0 -0.3556,-0.0593 -0.5334,-0.22225 v -1.0915 c 0.19756,-0.20249 0.39017,-0.29139 0.57291,-0.29139 0.39511,0 0.56304,0.28645 0.56304,0.77047 0,0.54821 -0.26177,0.83467 -0.60255,0.83467 z"
         style="font-style:normal;font-variant:normal;font-weight:600;font-stretch:normal;font-family:'Source Code Pro';-inkscape-font-specification:'Source Code Pro Semi-Bold';text-align:center;text-anchor:middle;fill:#ffffff;stroke:none;stroke-width:0.26458332px"
         id="path861" />
      <path
         d="m 111.83161,241.4729 c 0.28152,0 0.44944,-0.0494 0.6865,-0.13829 l -0.13335,-0.4198 c -0.1531,0.0642 -0.28645,0.0938 -0.41486,0.0938 -0.24201,0 -0.43462,-0.12348 -0.43462,-0.44944 v -2.63243 h -1.37795 v 0.44944 h 0.80997 v 2.15335 c 0,0.59761 0.30128,0.94333 0.86431,0.94333 z"
         style="font-style:normal;font-variant:normal;font-weight:600;font-stretch:normal;font-family:'Source Code Pro';-inkscape-font-specification:'Source Code Pro Semi-Bold';text-align:center;text-anchor:middle;fill:#ffffff;stroke:none;stroke-width:0.26458332px"
         id="path863" />
      <path
         d="m 114.29419,241.4729 c 0.63711,0 1.2199,-0.46425 1.2199,-1.26929 0,-0.80998 -0.58279,-1.27424 -1.2199,-1.27424 -0.63712,0 -1.21991,0.46426 -1.21991,1.27424 0,0.80504 0.58279,1.26929 1.21991,1.26929 z m 0,-0.46425 c -0.39512,0 -0.63218,-0.32103 -0.63218,-0.80504 0,-0.48895 0.23706,-0.80998 0.63218,-0.80998 0.39511,0 0.63217,0.32103 0.63217,0.80998 0,0.48401 -0.23706,0.80504 -0.63217,0.80504 z"
         style="font-style:normal;font-variant:normal;font-weight:600;font-stretch:normal;font-family:'Source Code Pro';-inkscape-font-specification:'Source Code Pro Semi-Bold';text-align:center;text-anchor:middle;fill:#ffffff;stroke:none;stroke-width:0.26458332px"
         id="path865" />
      <path
         d="m 117.18644,242.48537 c 0.85443,0 1.39771,-0.38029 1.39771,-0.85936 0,-0.42475 -0.32597,-0.59267 -0.95321,-0.59267 h -0.49388 c -0.30128,0 -0.45932,-0.0691 -0.45932,-0.22719 0,-0.0988 0.0494,-0.16792 0.14817,-0.22719 0.12841,0.0445 0.26176,0.0692 0.37041,0.0692 0.54328,0 0.97296,-0.28646 0.97296,-0.8248 0,-0.15804 -0.0741,-0.30621 -0.15804,-0.40005 h 0.55809 v -0.43462 h -0.99271 c -0.1136,-0.0395 -0.23707,-0.0593 -0.3803,-0.0593 -0.5334,0 -0.99765,0.31609 -0.99765,0.87419 0,0.28645 0.13829,0.50376 0.31115,0.62724 v 0.0197 c -0.1778,0.11854 -0.2914,0.29634 -0.2914,0.45438 0,0.20249 0.11854,0.32597 0.24695,0.40499 v 0.0197 c -0.25189,0.13829 -0.38524,0.31609 -0.38524,0.50871 0,0.43462 0.43956,0.64699 1.10631,0.64699 z m 0.01,-2.1978 c -0.25188,0 -0.45931,-0.1778 -0.45931,-0.48401 0,-0.29634 0.20743,-0.47907 0.45931,-0.47907 0.25189,0 0.45932,0.18273 0.45932,0.47907 0,0.30621 -0.20743,0.48401 -0.45932,0.48401 z m 0.0593,1.82245 c -0.44944,0 -0.70132,-0.12841 -0.70132,-0.34572 0,-0.1136 0.0642,-0.21731 0.23706,-0.31609 0.0988,0.0247 0.21238,0.0346 0.37042,0.0346 h 0.38523 c 0.32597,0 0.48895,0.0494 0.48895,0.23707 0,0.20743 -0.30621,0.39017 -0.78034,0.39017 z"
         style="font-style:normal;font-variant:normal;font-weight:600;font-stretch:normal;font-family:'Source Code Pro';-inkscape-font-specification:'Source Code Pro Semi-Bold';text-align:center;text-anchor:middle;fill:#ffffff;stroke:none;stroke-width:0.26458332px"
         id="path867" />
      <path
         d="m 122.99566,241.4729 c 0.27164,0 0.54328,-0.1531 0.73095,-0.34078 h 0.0148 l 0.0445,0.28152 h 0.46919 v -3.48686 h -0.57291 v 0.87912 l 0.0296,0.40993 h -0.0148 c -0.18768,-0.18274 -0.39017,-0.28646 -0.66675,-0.28646 -0.55316,0 -1.07174,0.48402 -1.07174,1.27424 0,0.8001 0.41487,1.26929 1.03717,1.26929 z m 0.13829,-0.46919 c -0.37042,0 -0.58773,-0.28152 -0.58773,-0.80504 0,-0.50871 0.28152,-0.8001 0.61736,-0.8001 0.1778,0 0.34572,0.0593 0.51858,0.22225 v 1.09149 c -0.16792,0.19756 -0.34572,0.2914 -0.54821,0.2914 z"
         style="font-style:normal;font-variant:normal;font-weight:600;font-stretch:normal;font-family:'Source Code Pro';-inkscape-font-specification:'Source Code Pro Semi-Bold';text-align:center;text-anchor:middle;fill:#ffffff;stroke:none;stroke-width:0.26458332px"
         id="path869" />
      <path
         d="m 126.28797,241.4729 c 0.3556,0 0.69144,-0.11853 0.94826,-0.28645 l -0.19261,-0.3556 c -0.21731,0.12347 -0.42475,0.20249 -0.68157,0.20249 -0.44944,0 -0.77047,-0.21731 -0.83467,-0.66675 h 1.78294 c 0.01,-0.0642 0.0247,-0.17286 0.0247,-0.28645 0,-0.67169 -0.40005,-1.15077 -1.12113,-1.15077 -0.65193,0 -1.25447,0.47908 -1.25447,1.2693 0,0.80504 0.58772,1.27423 1.32856,1.27423 z m -0.0593,-2.10396 c 0.34572,0 0.56303,0.19755 0.60254,0.59266 h -1.28905 c 0.0741,-0.39017 0.35067,-0.59266 0.68651,-0.59266 z"
         style="font-style:normal;font-variant:normal;font-weight:600;font-stretch:normal;font-family:'Source Code Pro';-inkscape-font-specification:'Source Code Pro Semi-Bold';text-align:center;text-anchor:middle;fill:#ffffff;stroke:none;stroke-width:0.26458332px"
         id="path871" />
      <path
         d="m 130.98593,242.37178 h 0.57291 v -0.76059 l -0.0296,-0.42474 h 0.0148 c 0.19261,0.18274 0.43956,0.28645 0.66181,0.28645 0.55809,0 1.07667,-0.47907 1.07667,-1.3088 0,-0.75071 -0.36053,-1.23473 -0.99271,-1.23473 -0.27658,0 -0.56797,0.14323 -0.77541,0.33585 h -0.0148 l -0.0445,-0.27658 h -0.4692 z m 1.10137,-1.36807 c -0.14816,0 -0.35066,-0.0593 -0.52846,-0.22225 v -1.0915 c 0.19756,-0.20249 0.39017,-0.29139 0.57291,-0.29139 0.39511,0 0.56304,0.28645 0.56304,0.77047 0,0.54821 -0.26176,0.83467 -0.60749,0.83467 z"
         style="font-style:normal;font-variant:normal;font-weight:600;font-stretch:normal;font-family:'Source Code Pro';-inkscape-font-specification:'Source Code Pro Semi-Bold';text-align:center;text-anchor:middle;fill:#ffffff;stroke:none;stroke-width:0.26458332px"
         id="path873" />
      <path
         d="m 134.1844,241.41364 h 0.57291 v -1.33844 c 0.24695,-0.4692 0.57291,-0.64206 0.90382,-0.64206 0.18274,0 0.28152,0.0247 0.43956,0.0741 l 0.11853,-0.47907 c -0.14322,-0.0691 -0.27164,-0.0988 -0.46919,-0.0988 -0.41981,0 -0.78528,0.21732 -1.03223,0.60749 h -0.0148 l -0.0494,-0.54822 h -0.4692 z"
         style="font-style:normal;font-variant:normal;font-weight:600;font-stretch:normal;font-family:'Source Code Pro';-inkscape-font-specification:'Source Code Pro Semi-Bold';text-align:center;text-anchor:middle;fill:#ffffff;stroke:none;stroke-width:0.26458332px"
         id="path875" />
      <path
         d="m 137.98541,241.4729 c 0.63712,0 1.21991,-0.46425 1.21991,-1.26929 0,-0.80998 -0.58279,-1.27424 -1.21991,-1.27424 -0.63711,0 -1.2199,0.46426 -1.2199,1.27424 0,0.80504 0.58279,1.26929 1.2199,1.26929 z m 0,-0.46425 c -0.39511,0 -0.63217,-0.32103 -0.63217,-0.80504 0,-0.48895 0.23706,-0.80998 0.63217,-0.80998 0.39512,0 0.63218,0.32103 0.63218,0.80998 0,0.48401 -0.23706,0.80504 -0.63218,0.80504 z"
         style="font-style:normal;font-variant:normal;font-weight:600;font-stretch:normal;font-family:'Source Code Pro';-inkscape-font-specification:'Source Code Pro Semi-Bold';text-align:center;text-anchor:middle;fill:#ffffff;stroke:none;stroke-width:0.26458332px"
         id="path877" />
      <path
         d="m 140.87768,242.48537 c 0.85442,0 1.3977,-0.38029 1.3977,-0.85936 0,-0.42475 -0.32596,-0.59267 -0.9532,-0.59267 h -0.49389 c -0.30127,0 -0.45932,-0.0691 -0.45932,-0.22719 0,-0.0988 0.0494,-0.16792 0.14817,-0.22719 0.12841,0.0445 0.26176,0.0692 0.37041,0.0692 0.54328,0 0.97297,-0.28646 0.97297,-0.8248 0,-0.15804 -0.0741,-0.30621 -0.15805,-0.40005 h 0.5581 v -0.43462 h -0.99272 c -0.1136,-0.0395 -0.23707,-0.0593 -0.3803,-0.0593 -0.53339,0 -0.99765,0.31609 -0.99765,0.87419 0,0.28645 0.13829,0.50376 0.31115,0.62724 v 0.0197 c -0.1778,0.11854 -0.29139,0.29634 -0.29139,0.45438 0,0.20249 0.11853,0.32597 0.24694,0.40499 v 0.0197 c -0.25188,0.13829 -0.38523,0.31609 -0.38523,0.50871 0,0.43462 0.43956,0.64699 1.10631,0.64699 z m 0.01,-2.1978 c -0.25188,0 -0.45931,-0.1778 -0.45931,-0.48401 0,-0.29634 0.20743,-0.47907 0.45931,-0.47907 0.25189,0 0.45932,0.18273 0.45932,0.47907 0,0.30621 -0.20743,0.48401 -0.45932,0.48401 z m 0.0593,1.82245 c -0.44944,0 -0.70132,-0.12841 -0.70132,-0.34572 0,-0.1136 0.0642,-0.21731 0.23707,-0.31609 0.0988,0.0247 0.21237,0.0346 0.37041,0.0346 h 0.38524 c 0.32596,0 0.48895,0.0494 0.48895,0.23707 0,0.20743 -0.30622,0.39017 -0.78035,0.39017 z"
         style="font-style:normal;font-variant:normal;font-weight:600;font-stretch:normal;font-family:'Source Code Pro';-inkscape-font-specification:'Source Code Pro Semi-Bold';text-align:center;text-anchor:middle;fill:#ffffff;stroke:none;stroke-width:0.26458332px"
         id="path879" />
      <path
         d="m 143.06861,241.41364 h 0.57291 v -1.33844 c 0.24695,-0.4692 0.57292,-0.64206 0.90382,-0.64206 0.18274,0 0.28152,0.0247 0.43956,0.0741 l 0.11854,-0.47907 c -0.14323,-0.0691 -0.27164,-0.0988 -0.4692,-0.0988 -0.4198,0 -0.78528,0.21732 -1.03223,0.60749 h -0.0148 l -0.0494,-0.54822 h -0.4692 z"
         style="font-style:normal;font-variant:normal;font-weight:600;font-stretch:normal;font-family:'Source Code Pro';-inkscape-font-specification:'Source Code Pro Semi-Bold';text-align:center;text-anchor:middle;fill:#ffffff;stroke:none;stroke-width:0.26458332px"
         id="path881" />
      <path
         d="m 146.5486,241.4729 c 0.32597,0 0.65193,-0.16298 0.90876,-0.36054 h 0.0148 l 0.0444,0.30128 h 0.46426 v -1.43722 c 0,-0.67663 -0.37042,-1.04705 -1.04211,-1.04705 -0.41486,0 -0.81491,0.16299 -1.10631,0.33585 l 0.20743,0.38029 c 0.25189,-0.13829 0.52353,-0.25682 0.79517,-0.25682 0.39511,0 0.55809,0.2025 0.57785,0.47413 -1.19522,0.084 -1.67429,0.3556 -1.67429,0.89888 0,0.42475 0.33585,0.7112 0.80998,0.7112 z m 0.17286,-0.4445 c -0.242,0 -0.43462,-0.0938 -0.43462,-0.31115 0,-0.26176 0.25682,-0.43956 1.12607,-0.49883 v 0.51365 c -0.22225,0.1778 -0.44944,0.29633 -0.69145,0.29633 z"
         style="font-style:normal;font-variant:normal;font-weight:600;font-stretch:normal;font-family:'Source Code Pro';-inkscape-font-specification:'Source Code Pro Semi-Bold';text-align:center;text-anchor:middle;fill:#ffffff;stroke:none;stroke-width:0.26458332px"
         id="path883" />
      <path
         d="m 148.57655,241.41364 h 0.55316 v -1.69404 c 0.0889,-0.2025 0.17286,-0.30621 0.30127,-0.30621 0.13829,0 0.19262,0.10865 0.19262,0.32102 v 1.67923 h 0.47413 v -1.69404 c 0.0988,-0.2025 0.17286,-0.30621 0.30621,-0.30621 0.13335,0 0.19262,0.10865 0.19262,0.32102 v 1.67923 h 0.54821 v -1.71874 c 0,-0.48401 -0.19755,-0.76553 -0.53833,-0.76553 -0.28152,0 -0.43957,0.16793 -0.55316,0.40499 -0.0642,-0.2667 -0.21731,-0.40499 -0.43956,-0.40499 -0.28152,0 -0.43462,0.15805 -0.53834,0.36548 h -0.0148 l -0.0445,-0.30621 h -0.43956 z"
         style="font-style:normal;font-variant:normal;font-weight:600;font-stretch:normal;font-family:'Source Code Pro';-inkscape-font-specification:'Source Code Pro Semi-Bold';text-align:center;text-anchor:middle;fill:#ffffff;stroke:none;stroke-width:0.26458332px"
         id="path885" />
      <path
         d="m 152.47141,241.4729 c 0.32596,0 0.65193,-0.16298 0.90875,-0.36054 h 0.0148 l 0.0444,0.30128 h 0.46425 v -1.43722 c 0,-0.67663 -0.37041,-1.04705 -1.0421,-1.04705 -0.41487,0 -0.81492,0.16299 -1.10631,0.33585 l 0.20743,0.38029 c 0.25188,-0.13829 0.52352,-0.25682 0.79516,-0.25682 0.39511,0 0.5581,0.2025 0.57785,0.47413 -1.19521,0.084 -1.67428,0.3556 -1.67428,0.89888 0,0.42475 0.33584,0.7112 0.80998,0.7112 z m 0.17286,-0.4445 c -0.24201,0 -0.43463,-0.0938 -0.43463,-0.31115 0,-0.26176 0.25683,-0.43956 1.12607,-0.49883 v 0.51365 c -0.22225,0.1778 -0.44944,0.29633 -0.69144,0.29633 z"
         style="font-style:normal;font-variant:normal;font-weight:600;font-stretch:normal;font-family:'Source Code Pro';-inkscape-font-specification:'Source Code Pro Semi-Bold';text-align:center;text-anchor:middle;fill:#ffffff;stroke:none;stroke-width:0.26458332px"
         id="path887" />
      <path
         d="m 155.97115,241.4729 c 0.34572,0 0.70132,-0.12347 0.98284,-0.36548 l -0.23707,-0.36547 c -0.18767,0.14322 -0.41486,0.2667 -0.69144,0.2667 -0.47907,0 -0.80504,-0.32103 -0.80504,-0.80504 0,-0.48895 0.33584,-0.80998 0.81986,-0.80998 0.21731,0 0.40992,0.079 0.5976,0.23213 l 0.27164,-0.3556 c -0.20249,-0.19262 -0.50871,-0.34079 -0.89888,-0.34079 -0.74083,0 -1.37795,0.46426 -1.37795,1.27424 0,0.80504 0.57785,1.26929 1.33844,1.26929 z"
         style="font-style:normal;font-variant:normal;font-weight:600;font-stretch:normal;font-family:'Source Code Pro';-inkscape-font-specification:'Source Code Pro Semi-Bold';text-align:center;text-anchor:middle;fill:#ffffff;stroke:none;stroke-width:0.26458332px"
         id="path889" />
      <path
         d="m 158.70043,241.41364 h 0.56797 v -2.425 h -1.61996 v 0.44944 h 1.05199 z m 0.242,-2.8695 c 0.23213,0 0.40499,-0.14817 0.40499,-0.38029 0,-0.22719 -0.17286,-0.38524 -0.40499,-0.38524 -0.23213,0 -0.40499,0.15805 -0.40499,0.38524 0,0.23212 0.17286,0.38029 0.40499,0.38029 z"
         style="font-style:normal;font-variant:normal;font-weight:600;font-stretch:normal;font-family:'Source Code Pro';-inkscape-font-specification:'Source Code Pro Semi-Bold';text-align:center;text-anchor:middle;fill:#ffffff;stroke:none;stroke-width:0.26458332px"
         id="path891" />
      <path
         d="m 161.67665,241.4729 c 0.63711,0 1.2199,-0.46425 1.2199,-1.26929 0,-0.80998 -0.58279,-1.27424 -1.2199,-1.27424 -0.63712,0 -1.21991,0.46426 -1.21991,1.27424 0,0.80504 0.58279,1.26929 1.21991,1.26929 z m 0,-0.46425 c -0.39512,0 -0.63218,-0.32103 -0.63218,-0.80504 0,-0.48895 0.23706,-0.80998 0.63218,-0.80998 0.39511,0 0.63217,0.32103 0.63217,0.80998 0,0.48401 -0.23706,0.80504 -0.63217,0.80504 z m -0.0692,-2.38055 0.83961,-0.76553 -0.39511,-0.38029 -0.72602,0.86431 z"
         style="font-style:normal;font-variant:normal;font-weight:600;font-stretch:normal;font-family:'Source Code Pro';-inkscape-font-specification:'Source Code Pro Semi-Bold';text-align:center;text-anchor:middle;fill:#ffffff;stroke:none;stroke-width:0.26458332px"
         id="path893" />
      <path
         d="m 163.56137,241.41364 h 0.57292 v -1.65453 c 0.22225,-0.22719 0.38523,-0.34079 0.6223,-0.34079 0.3309,0 0.45437,0.1778 0.45437,0.56798 v 1.42734 h 0.57291 v -1.50143 c 0,-0.62724 -0.25682,-0.98284 -0.81491,-0.98284 -0.37042,0 -0.647,0.19262 -0.87419,0.42475 h -0.0198 l -0.0444,-0.36548 h -0.4692 z"
         style="font-style:normal;font-variant:normal;font-weight:600;font-stretch:normal;font-family:'Source Code Pro';-inkscape-font-specification:'Source Code Pro Semi-Bold';text-align:center;text-anchor:middle;fill:#ffffff;stroke:none;stroke-width:0.26458332px"
         id="path895" />
      <path
         d="m 170.77817,241.4729 c 0.34572,0 0.70132,-0.12347 0.98284,-0.36548 l -0.23707,-0.36547 c -0.18768,0.14322 -0.41487,0.2667 -0.69144,0.2667 -0.47908,0 -0.80504,-0.32103 -0.80504,-0.80504 0,-0.48895 0.33584,-0.80998 0.81985,-0.80998 0.21731,0 0.40993,0.079 0.59761,0.23213 l 0.27164,-0.3556 c -0.2025,-0.19262 -0.50871,-0.34079 -0.89888,-0.34079 -0.74083,0 -1.37795,0.46426 -1.37795,1.27424 0,0.80504 0.57785,1.26929 1.33844,1.26929 z"
         style="font-style:normal;font-variant:normal;font-weight:600;font-stretch:normal;font-family:'Source Code Pro';-inkscape-font-specification:'Source Code Pro Semi-Bold';text-align:center;text-anchor:middle;fill:#ffffff;stroke:none;stroke-width:0.26458332px"
         id="path897" />
      <path
         d="m 173.50744,241.41364 h 0.56798 v -2.425 h -1.61996 v 0.44944 h 1.05198 z m 0.24201,-2.8695 c 0.23213,0 0.40499,-0.14817 0.40499,-0.38029 0,-0.22719 -0.17286,-0.38524 -0.40499,-0.38524 -0.23213,0 -0.40499,0.15805 -0.40499,0.38524 0,0.23212 0.17286,0.38029 0.40499,0.38029 z"
         style="font-style:normal;font-variant:normal;font-weight:600;font-stretch:normal;font-family:'Source Code Pro';-inkscape-font-specification:'Source Code Pro Semi-Bold';text-align:center;text-anchor:middle;fill:#ffffff;stroke:none;stroke-width:0.26458332px"
         id="path899" />
      <path
         d="m 176.63183,241.4729 c 0.3556,0 0.69145,-0.11853 0.94827,-0.28645 l -0.19262,-0.3556 c -0.21731,0.12347 -0.42474,0.20249 -0.68157,0.20249 -0.44943,0 -0.77046,-0.21731 -0.83467,-0.66675 h 1.78294 c 0.01,-0.0642 0.0247,-0.17286 0.0247,-0.28645 0,-0.67169 -0.40005,-1.15077 -1.12113,-1.15077 -0.65194,0 -1.25448,0.47908 -1.25448,1.2693 0,0.80504 0.58773,1.27423 1.32856,1.27423 z m -0.0593,-2.10396 c 0.34573,0 0.56304,0.19755 0.60255,0.59266 h -1.28905 c 0.0741,-0.39017 0.35066,-0.59266 0.6865,-0.59266 z"
         style="font-style:normal;font-variant:normal;font-weight:600;font-stretch:normal;font-family:'Source Code Pro';-inkscape-font-specification:'Source Code Pro Semi-Bold';text-align:center;text-anchor:middle;fill:#ffffff;stroke:none;stroke-width:0.26458332px"
         id="path901" />
      <path
         d="m 178.36839,241.41364 h 0.57291 v -1.65453 c 0.22225,-0.22719 0.38523,-0.34079 0.6223,-0.34079 0.33091,0 0.45438,0.1778 0.45438,0.56798 v 1.42734 h 0.57291 v -1.50143 c 0,-0.62724 -0.25682,-0.98284 -0.81492,-0.98284 -0.37041,0 -0.64699,0.19262 -0.87418,0.42475 h -0.0198 l -0.0444,-0.36548 h -0.46919 z"
         style="font-style:normal;font-variant:normal;font-weight:600;font-stretch:normal;font-family:'Source Code Pro';-inkscape-font-specification:'Source Code Pro Semi-Bold';text-align:center;text-anchor:middle;fill:#ffffff;stroke:none;stroke-width:0.26458332px"
         id="path903" />
      <path
         d="m 182.85592,241.4729 c 0.31609,0 0.55809,-0.0642 0.7754,-0.13829 l -0.10865,-0.41486 c -0.15805,0.0593 -0.32597,0.0988 -0.52846,0.0988 -0.41487,0 -0.56304,-0.18273 -0.56304,-0.58278 v -0.99766 h 1.10631 v -0.44944 h -1.10631 v -0.76059 h -0.46919 l -0.0741,0.76059 -0.67168,0.0247 v 0.42474 h 0.64699 v 0.99766 c 0,0.6223 0.25188,1.03716 0.99272,1.03716 z"
         style="font-style:normal;font-variant:normal;font-weight:600;font-stretch:normal;font-family:'Source Code Pro';-inkscape-font-specification:'Source Code Pro Semi-Bold';text-align:center;text-anchor:middle;fill:#ffffff;stroke:none;stroke-width:0.26458332px"
         id="path905" />
      <path
         d="m 185.35306,241.41364 h 0.56798 v -2.425 h -1.61996 v 0.44944 h 1.05198 z m 0.17286,-2.78554 0.83962,-0.76553 -0.39512,-0.38029 -0.72601,0.86431 z"
         style="font-style:normal;font-variant:normal;font-weight:600;font-stretch:normal;font-family:'Source Code Pro';-inkscape-font-specification:'Source Code Pro Semi-Bold';text-align:center;text-anchor:middle;fill:#ffffff;stroke:none;stroke-width:0.26458332px"
         id="path907" />
      <path
         d="m 187.97368,241.41364 h 0.56304 v -1.97556 h 0.92357 v -0.44944 h -0.92357 v -0.14323 c 0,-0.34078 0.16298,-0.52846 0.5334,-0.52846 0.19755,0 0.3556,0.0346 0.5334,0.10372 l 0.11853,-0.41981 c -0.21731,-0.084 -0.45932,-0.13335 -0.72108,-0.13335 -0.7112,0 -1.02729,0.41487 -1.02729,0.98778 v 0.13335 l -0.67169,0.0247 v 0.42474 h 0.67169 z"
         style="font-style:normal;font-variant:normal;font-weight:600;font-stretch:normal;font-family:'Source Code Pro';-inkscape-font-specification:'Source Code Pro Semi-Bold';text-align:center;text-anchor:middle;fill:#ffffff;stroke:none;stroke-width:0.26458332px"
         id="path909" />
      <path
         d="m 191.27587,241.41364 h 0.56797 v -2.425 h -1.61995 v 0.44944 h 1.05198 z m 0.242,-2.8695 c 0.23213,0 0.40499,-0.14817 0.40499,-0.38029 0,-0.22719 -0.17286,-0.38524 -0.40499,-0.38524 -0.23212,0 -0.40498,0.15805 -0.40498,0.38524 0,0.23212 0.17286,0.38029 0.40498,0.38029 z"
         style="font-style:normal;font-variant:normal;font-weight:600;font-stretch:normal;font-family:'Source Code Pro';-inkscape-font-specification:'Source Code Pro Semi-Bold';text-align:center;text-anchor:middle;fill:#ffffff;stroke:none;stroke-width:0.26458332px"
         id="path911" />
      <path
         d="m 194.4694,241.4729 c 0.34572,0 0.70132,-0.12347 0.98284,-0.36548 l -0.23707,-0.36547 c -0.18768,0.14322 -0.41486,0.2667 -0.69144,0.2667 -0.47907,0 -0.80504,-0.32103 -0.80504,-0.80504 0,-0.48895 0.33584,-0.80998 0.81985,-0.80998 0.21732,0 0.40993,0.079 0.59761,0.23213 l 0.27164,-0.3556 c -0.2025,-0.19262 -0.50871,-0.34079 -0.89888,-0.34079 -0.74083,0 -1.37795,0.46426 -1.37795,1.27424 0,0.80504 0.57785,1.26929 1.33844,1.26929 z"
         style="font-style:normal;font-variant:normal;font-weight:600;font-stretch:normal;font-family:'Source Code Pro';-inkscape-font-specification:'Source Code Pro Semi-Bold';text-align:center;text-anchor:middle;fill:#ffffff;stroke:none;stroke-width:0.26458332px"
         id="path913" />
      <path
         d="m 196.89246,241.4729 c 0.32597,0 0.65194,-0.16298 0.90876,-0.36054 h 0.0148 l 0.0445,0.30128 h 0.46425 v -1.43722 c 0,-0.67663 -0.37041,-1.04705 -1.0421,-1.04705 -0.41487,0 -0.81492,0.16299 -1.10631,0.33585 l 0.20743,0.38029 c 0.25188,-0.13829 0.52352,-0.25682 0.79516,-0.25682 0.39511,0 0.55809,0.2025 0.57785,0.47413 -1.19521,0.084 -1.67428,0.3556 -1.67428,0.89888 0,0.42475 0.33584,0.7112 0.80997,0.7112 z m 0.17287,-0.4445 c -0.24201,0 -0.43463,-0.0938 -0.43463,-0.31115 0,-0.26176 0.25683,-0.43956 1.12607,-0.49883 v 0.51365 c -0.22225,0.1778 -0.44944,0.29633 -0.69144,0.29633 z"
         style="font-style:normal;font-variant:normal;font-weight:600;font-stretch:normal;font-family:'Source Code Pro';-inkscape-font-specification:'Source Code Pro Semi-Bold';text-align:center;text-anchor:middle;fill:#ffffff;stroke:none;stroke-width:0.26458332px"
         id="path915" />
      <path
         d="m 93.712525,247.69474 c 0.3556,0 0.691444,-0.11853 0.948266,-0.28645 l -0.192616,-0.3556 c -0.217311,0.12347 -0.424745,0.20249 -0.681567,0.20249 -0.449439,0 -0.770466,-0.21731 -0.834672,-0.66675 h 1.782939 c 0.0099,-0.0642 0.02469,-0.17286 0.02469,-0.28645 0,-0.67169 -0.40005,-1.15076 -1.121128,-1.15076 -0.651933,0 -1.254477,0.47907 -1.254477,1.26929 0,0.80504 0.587728,1.27423 1.328561,1.27423 z m -0.05927,-2.10396 c 0.345722,0 0.563033,0.19755 0.602545,0.59266 h -1.28905 c 0.07408,-0.39017 0.350661,-0.59266 0.686505,-0.59266 z"
         style="font-style:normal;font-variant:normal;font-weight:600;font-stretch:normal;font-family:'Source Code Pro';-inkscape-font-specification:'Source Code Pro Semi-Bold';text-align:center;text-anchor:middle;fill:#ffffff;stroke:none;stroke-width:0.26458332px"
         id="path917" />
      <path
         d="m 95.449084,247.63548 h 0.572911 v -1.65453 c 0.22225,-0.22719 0.385234,-0.34078 0.6223,-0.34078 0.330906,0 0.454378,0.1778 0.454378,0.56797 v 1.42734 h 0.572911 v -1.50142 c 0,-0.62724 -0.256822,-0.98284 -0.814916,-0.98284 -0.370417,0 -0.646995,0.19261 -0.874184,0.42474 h -0.01976 l -0.04445,-0.36548 h -0.469195 z"
         style="font-style:normal;font-variant:normal;font-weight:600;font-stretch:normal;font-family:'Source Code Pro';-inkscape-font-specification:'Source Code Pro Semi-Bold';text-align:center;text-anchor:middle;fill:#ffffff;stroke:none;stroke-width:0.26458332px"
         id="path919" />
      <path
         d="m 99.131566,247.63548 h 0.563033 v -1.97556 h 0.923571 v -0.44944 h -0.923571 v -0.14322 c 0,-0.34079 0.162983,-0.52847 0.533401,-0.52847 0.19755,0 0.3556,0.0346 0.5334,0.10372 l 0.11853,-0.4198 c -0.21731,-0.084 -0.45931,-0.13335 -0.72108,-0.13335 -0.711195,0 -1.027284,0.41486 -1.027284,0.98777 v 0.13335 l -0.671689,0.0247 v 0.42474 h 0.671689 z"
         style="font-style:normal;font-variant:normal;font-weight:600;font-stretch:normal;font-family:'Source Code Pro';-inkscape-font-specification:'Source Code Pro Semi-Bold';text-align:center;text-anchor:middle;fill:#ffffff;stroke:none;stroke-width:0.26458332px"
         id="path921" />
      <path
         d="m 102.44857,247.69474 c 0.63712,0 1.21991,-0.46425 1.21991,-1.26929 0,-0.80998 -0.58279,-1.27423 -1.21991,-1.27423 -0.63712,0 -1.21991,0.46425 -1.21991,1.27423 0,0.80504 0.58279,1.26929 1.21991,1.26929 z m 0,-0.46425 c -0.39511,0 -0.63218,-0.32103 -0.63218,-0.80504 0,-0.48895 0.23707,-0.80998 0.63218,-0.80998 0.39511,0 0.63218,0.32103 0.63218,0.80998 0,0.48401 -0.23707,0.80504 -0.63218,0.80504 z"
         style="font-style:normal;font-variant:normal;font-weight:600;font-stretch:normal;font-family:'Source Code Pro';-inkscape-font-specification:'Source Code Pro Semi-Bold';text-align:center;text-anchor:middle;fill:#ffffff;stroke:none;stroke-width:0.26458332px"
         id="path923" />
      <path
         d="m 105.62728,247.69474 c 0.34573,0 0.70133,-0.12347 0.98284,-0.36547 l -0.23706,-0.36548 c -0.18768,0.14323 -0.41487,0.2667 -0.69145,0.2667 -0.47907,0 -0.80504,-0.32103 -0.80504,-0.80504 0,-0.48895 0.33585,-0.80998 0.81986,-0.80998 0.21731,0 0.40993,0.079 0.5976,0.23213 l 0.27164,-0.3556 c -0.20249,-0.19262 -0.5087,-0.34078 -0.89887,-0.34078 -0.74084,0 -1.37795,0.46425 -1.37795,1.27423 0,0.80504 0.57785,1.26929 1.33843,1.26929 z"
         style="font-style:normal;font-variant:normal;font-weight:600;font-stretch:normal;font-family:'Source Code Pro';-inkscape-font-specification:'Source Code Pro Semi-Bold';text-align:center;text-anchor:middle;fill:#ffffff;stroke:none;stroke-width:0.26458332px"
         id="path925" />
      <path
         d="m 108.05035,247.69474 c 0.32597,0 0.65193,-0.16298 0.90876,-0.36053 h 0.0148 l 0.0444,0.30127 h 0.46426 v -1.43722 c 0,-0.67663 -0.37042,-1.04704 -1.04211,-1.04704 -0.41486,0 -0.81491,0.16298 -1.10631,0.33584 l 0.20743,0.3803 c 0.25189,-0.13829 0.52353,-0.25683 0.79517,-0.25683 0.39511,0 0.55809,0.2025 0.57785,0.47414 -1.19522,0.084 -1.67429,0.3556 -1.67429,0.89887 0,0.42475 0.33585,0.7112 0.80998,0.7112 z m 0.17286,-0.4445 c -0.242,0 -0.43462,-0.0938 -0.43462,-0.31115 0,-0.26176 0.25682,-0.43956 1.12607,-0.49882 v 0.51364 c -0.22225,0.1778 -0.44944,0.29633 -0.69145,0.29633 z"
         style="font-style:normal;font-variant:normal;font-weight:600;font-stretch:normal;font-family:'Source Code Pro';-inkscape-font-specification:'Source Code Pro Semi-Bold';text-align:center;text-anchor:middle;fill:#ffffff;stroke:none;stroke-width:0.26458332px"
         id="path927" />
      <path
         d="m 111.15004,247.69474 c 0.27164,0 0.54328,-0.1531 0.73096,-0.34078 h 0.0148 l 0.0444,0.28152 h 0.4692 v -3.48686 h -0.57291 v 0.87912 l 0.0296,0.40993 h -0.0148 c -0.18767,-0.18274 -0.39017,-0.28645 -0.66675,-0.28645 -0.55315,0 -1.07173,0.48401 -1.07173,1.27423 0,0.8001 0.41486,1.26929 1.03716,1.26929 z m 0.13829,-0.46919 c -0.37042,0 -0.58773,-0.28152 -0.58773,-0.80504 0,-0.5087 0.28152,-0.8001 0.61736,-0.8001 0.1778,0 0.34573,0.0593 0.51859,0.22225 v 1.0915 c -0.16792,0.19755 -0.34572,0.29139 -0.54822,0.29139 z"
         style="font-style:normal;font-variant:normal;font-weight:600;font-stretch:normal;font-family:'Source Code Pro';-inkscape-font-specification:'Source Code Pro Semi-Bold';text-align:center;text-anchor:middle;fill:#ffffff;stroke:none;stroke-width:0.26458332px"
         id="path929" />
      <path
         d="m 114.29419,247.69474 c 0.63711,0 1.2199,-0.46425 1.2199,-1.26929 0,-0.80998 -0.58279,-1.27423 -1.2199,-1.27423 -0.63712,0 -1.21991,0.46425 -1.21991,1.27423 0,0.80504 0.58279,1.26929 1.21991,1.26929 z m 0,-0.46425 c -0.39512,0 -0.63218,-0.32103 -0.63218,-0.80504 0,-0.48895 0.23706,-0.80998 0.63218,-0.80998 0.39511,0 0.63217,0.32103 0.63217,0.80998 0,0.48401 -0.23706,0.80504 -0.63217,0.80504 z"
         style="font-style:normal;font-variant:normal;font-weight:600;font-stretch:normal;font-family:'Source Code Pro';-inkscape-font-specification:'Source Code Pro Semi-Bold';text-align:center;text-anchor:middle;fill:#ffffff;stroke:none;stroke-width:0.26458332px"
         id="path931" />
      <path
         d="m 120.36516,247.69474 c 0.3556,0 0.69144,-0.11853 0.94827,-0.28645 l -0.19262,-0.3556 c -0.21731,0.12347 -0.42475,0.20249 -0.68157,0.20249 -0.44944,0 -0.77046,-0.21731 -0.83467,-0.66675 h 1.78294 c 0.01,-0.0642 0.0247,-0.17286 0.0247,-0.28645 0,-0.67169 -0.40005,-1.15076 -1.12112,-1.15076 -0.65194,0 -1.25448,0.47907 -1.25448,1.26929 0,0.80504 0.58773,1.27423 1.32856,1.27423 z m -0.0593,-2.10396 c 0.34572,0 0.56304,0.19755 0.60255,0.59266 h -1.28905 c 0.0741,-0.39017 0.35066,-0.59266 0.6865,-0.59266 z"
         style="font-style:normal;font-variant:normal;font-weight:600;font-stretch:normal;font-family:'Source Code Pro';-inkscape-font-specification:'Source Code Pro Semi-Bold';text-align:center;text-anchor:middle;fill:#ffffff;stroke:none;stroke-width:0.26458332px"
         id="path933" />
      <path
         d="m 122.10172,247.63548 h 0.57291 v -1.65453 c 0.22225,-0.22719 0.38523,-0.34078 0.6223,-0.34078 0.33091,0 0.45438,0.1778 0.45438,0.56797 v 1.42734 h 0.57291 v -1.50142 c 0,-0.62724 -0.25682,-0.98284 -0.81492,-0.98284 -0.37041,0 -0.64699,0.19261 -0.87418,0.42474 h -0.0198 l -0.0444,-0.36548 h -0.46919 z"
         style="font-style:normal;font-variant:normal;font-weight:600;font-stretch:normal;font-family:'Source Code Pro';-inkscape-font-specification:'Source Code Pro Semi-Bold';text-align:center;text-anchor:middle;fill:#ffffff;stroke:none;stroke-width:0.26458332px"
         id="path935" />
      <path
         d="m 128.02453,247.63548 h 0.57291 v -1.65453 c 0.22225,-0.22719 0.38523,-0.34078 0.6223,-0.34078 0.3309,0 0.45438,0.1778 0.45438,0.56797 v 1.42734 h 0.57291 v -1.50142 c 0,-0.62724 -0.25683,-0.98284 -0.81492,-0.98284 -0.37042,0 -0.64206,0.19261 -0.85443,0.41486 h -0.0148 l 0.0346,-0.51858 v -0.89888 h -0.57291 z"
         style="font-style:normal;font-variant:normal;font-weight:600;font-stretch:normal;font-family:'Source Code Pro';-inkscape-font-specification:'Source Code Pro Semi-Bold';text-align:center;text-anchor:middle;fill:#ffffff;stroke:none;stroke-width:0.26458332px"
         id="path937" />
      <path
         d="m 132.04779,247.63548 h 0.56797 v -2.425 h -1.61995 v 0.44944 h 1.05198 z m 0.24201,-2.8695 c 0.23212,0 0.40498,-0.14816 0.40498,-0.38029 0,-0.22719 -0.17286,-0.38523 -0.40498,-0.38523 -0.23213,0 -0.40499,0.15804 -0.40499,0.38523 0,0.23213 0.17286,0.38029 0.40499,0.38029 z"
         style="font-style:normal;font-variant:normal;font-weight:600;font-stretch:normal;font-family:'Source Code Pro';-inkscape-font-specification:'Source Code Pro Semi-Bold';text-align:center;text-anchor:middle;fill:#ffffff;stroke:none;stroke-width:0.26458332px"
         id="path939" />
      <path
         d="m 134.95487,248.70722 c 0.85443,0 1.3977,-0.3803 1.3977,-0.85937 0,-0.42474 -0.32596,-0.59267 -0.9532,-0.59267 h -0.49389 c -0.30127,0 -0.45932,-0.0691 -0.45932,-0.22719 0,-0.0988 0.0494,-0.16792 0.14817,-0.22718 0.12841,0.0444 0.26176,0.0691 0.37042,0.0691 0.54327,0 0.97296,-0.28646 0.97296,-0.82479 0,-0.15805 -0.0741,-0.30622 -0.15805,-0.40005 h 0.5581 v -0.43463 h -0.99272 c -0.11359,-0.0395 -0.23706,-0.0593 -0.38029,-0.0593 -0.5334,0 -0.99766,0.31609 -0.99766,0.87418 0,0.28646 0.13829,0.50377 0.31115,0.62724 v 0.0198 c -0.1778,0.11854 -0.29139,0.29634 -0.29139,0.45438 0,0.2025 0.11853,0.32597 0.24694,0.40499 v 0.0198 c -0.25188,0.13829 -0.38523,0.31609 -0.38523,0.5087 0,0.43462 0.43956,0.647 1.10631,0.647 z m 0.01,-2.19781 c -0.25189,0 -0.45932,-0.1778 -0.45932,-0.48401 0,-0.29633 0.20743,-0.47907 0.45932,-0.47907 0.25188,0 0.45931,0.18274 0.45931,0.47907 0,0.30621 -0.20743,0.48401 -0.45931,0.48401 z m 0.0593,1.82245 c -0.44943,0 -0.70132,-0.12841 -0.70132,-0.34572 0,-0.1136 0.0642,-0.21731 0.23707,-0.31609 0.0988,0.0247 0.21237,0.0346 0.37042,0.0346 h 0.38523 c 0.32596,0 0.48895,0.0494 0.48895,0.23707 0,0.20743 -0.30621,0.39017 -0.78035,0.39017 z"
         style="font-style:normal;font-variant:normal;font-weight:600;font-stretch:normal;font-family:'Source Code Pro';-inkscape-font-specification:'Source Code Pro Semi-Bold';text-align:center;text-anchor:middle;fill:#ffffff;stroke:none;stroke-width:0.26458332px"
         id="path941" />
      <path
         d="m 136.90874,247.63548 h 0.57291 v -1.65453 c 0.22225,-0.22719 0.38523,-0.34078 0.6223,-0.34078 0.33091,0 0.45438,0.1778 0.45438,0.56797 v 1.42734 h 0.57291 v -1.50142 c 0,-0.62724 -0.25682,-0.98284 -0.81492,-0.98284 -0.37041,0 -0.64205,0.19261 -0.85443,0.41486 h -0.0148 l 0.0346,-0.51858 v -0.89888 h -0.57291 z"
         style="font-style:normal;font-variant:normal;font-weight:600;font-stretch:normal;font-family:'Source Code Pro';-inkscape-font-specification:'Source Code Pro Semi-Bold';text-align:center;text-anchor:middle;fill:#ffffff;stroke:none;stroke-width:0.26458332px"
         id="path943" />
      <path
         d="m 142.83154,248.59362 h 0.57292 v -0.76059 l -0.0296,-0.42474 h 0.0148 c 0.19262,0.18274 0.43956,0.28645 0.66181,0.28645 0.55809,0 1.07668,-0.47907 1.07668,-1.3088 0,-0.75071 -0.36054,-1.23472 -0.99272,-1.23472 -0.27658,0 -0.56797,0.14322 -0.7754,0.33584 h -0.0148 l -0.0445,-0.27658 h -0.4692 z m 1.10138,-1.36807 c -0.14817,0 -0.35066,-0.0593 -0.52846,-0.22225 v -1.09149 c 0.19755,-0.2025 0.39017,-0.2914 0.57291,-0.2914 0.39511,0 0.56303,0.28646 0.56303,0.77047 0,0.54821 -0.26176,0.83467 -0.60748,0.83467 z"
         style="font-style:normal;font-variant:normal;font-weight:600;font-stretch:normal;font-family:'Source Code Pro';-inkscape-font-specification:'Source Code Pro Semi-Bold';text-align:center;text-anchor:middle;fill:#ffffff;stroke:none;stroke-width:0.26458332px"
         id="path945" />
      <path
         d="m 147.01779,247.69474 c 0.3556,0 0.69145,-0.11853 0.94827,-0.28645 l -0.19262,-0.3556 c -0.21731,0.12347 -0.42474,0.20249 -0.68156,0.20249 -0.44944,0 -0.77047,-0.21731 -0.83468,-0.66675 h 1.78294 c 0.01,-0.0642 0.0247,-0.17286 0.0247,-0.28645 0,-0.67169 -0.40005,-1.15076 -1.12113,-1.15076 -0.65193,0 -1.25448,0.47907 -1.25448,1.26929 0,0.80504 0.58773,1.27423 1.32856,1.27423 z m -0.0593,-2.10396 c 0.34572,0 0.56303,0.19755 0.60254,0.59266 h -1.28905 c 0.0741,-0.39017 0.35066,-0.59266 0.68651,-0.59266 z"
         style="font-style:normal;font-variant:normal;font-weight:600;font-stretch:normal;font-family:'Source Code Pro';-inkscape-font-specification:'Source Code Pro Semi-Bold';text-align:center;text-anchor:middle;fill:#ffffff;stroke:none;stroke-width:0.26458332px"
         id="path947" />
      <path
         d="m 148.99142,247.63548 h 0.57291 v -1.33844 c 0.24695,-0.4692 0.57291,-0.64206 0.90382,-0.64206 0.18274,0 0.28152,0.0247 0.43956,0.0741 l 0.11853,-0.47908 c -0.14322,-0.0691 -0.27164,-0.0988 -0.46919,-0.0988 -0.41981,0 -0.78528,0.21731 -1.03223,0.60748 H 149.51 l -0.0494,-0.54822 h -0.4692 z"
         style="font-style:normal;font-variant:normal;font-weight:600;font-stretch:normal;font-family:'Source Code Pro';-inkscape-font-specification:'Source Code Pro Semi-Bold';text-align:center;text-anchor:middle;fill:#ffffff;stroke:none;stroke-width:0.26458332px"
         id="path949" />
      <path
         d="m 152.43684,247.63548 h 0.56303 v -1.97556 h 0.92357 v -0.44944 h -0.92357 v -0.14322 c 0,-0.34079 0.16298,-0.52847 0.5334,-0.52847 0.19755,0 0.3556,0.0346 0.5334,0.10372 l 0.11853,-0.4198 c -0.21731,-0.084 -0.45931,-0.13335 -0.72108,-0.13335 -0.7112,0 -1.02728,0.41486 -1.02728,0.98777 v 0.13335 l -0.67169,0.0247 v 0.42474 h 0.67169 z"
         style="font-style:normal;font-variant:normal;font-weight:600;font-stretch:normal;font-family:'Source Code Pro';-inkscape-font-specification:'Source Code Pro Semi-Bold';text-align:center;text-anchor:middle;fill:#ffffff;stroke:none;stroke-width:0.26458332px"
         id="path951" />
      <path
         d="m 155.75384,247.69474 c 0.63711,0 1.2199,-0.46425 1.2199,-1.26929 0,-0.80998 -0.58279,-1.27423 -1.2199,-1.27423 -0.63712,0 -1.21991,0.46425 -1.21991,1.27423 0,0.80504 0.58279,1.26929 1.21991,1.26929 z m 0,-0.46425 c -0.39511,0 -0.63218,-0.32103 -0.63218,-0.80504 0,-0.48895 0.23707,-0.80998 0.63218,-0.80998 0.39511,0 0.63218,0.32103 0.63218,0.80998 0,0.48401 -0.23707,0.80504 -0.63218,0.80504 z"
         style="font-style:normal;font-variant:normal;font-weight:600;font-stretch:normal;font-family:'Source Code Pro';-inkscape-font-specification:'Source Code Pro Semi-Bold';text-align:center;text-anchor:middle;fill:#ffffff;stroke:none;stroke-width:0.26458332px"
         id="path953" />
      <path
         d="m 157.87563,247.63548 h 0.57291 v -1.33844 c 0.24695,-0.4692 0.57292,-0.64206 0.90382,-0.64206 0.18274,0 0.28152,0.0247 0.43956,0.0741 l 0.11854,-0.47908 c -0.14323,-0.0691 -0.27164,-0.0988 -0.4692,-0.0988 -0.4198,0 -0.78528,0.21731 -1.03223,0.60748 h -0.0148 l -0.0494,-0.54822 h -0.4692 z"
         style="font-style:normal;font-variant:normal;font-weight:600;font-stretch:normal;font-family:'Source Code Pro';-inkscape-font-specification:'Source Code Pro Semi-Bold';text-align:center;text-anchor:middle;fill:#ffffff;stroke:none;stroke-width:0.26458332px"
         id="path955" />
      <path
         d="m 160.42217,247.63548 h 0.55316 v -1.69404 c 0.0889,-0.2025 0.17286,-0.30621 0.30127,-0.30621 0.13829,0 0.19261,0.10865 0.19261,0.32103 v 1.67922 h 0.47414 v -1.69404 c 0.0988,-0.2025 0.17286,-0.30621 0.30621,-0.30621 0.13335,0 0.19262,0.10865 0.19262,0.32103 v 1.67922 h 0.54821 v -1.71874 c 0,-0.48401 -0.19755,-0.76552 -0.53834,-0.76552 -0.28151,0 -0.43956,0.16792 -0.55315,0.40499 -0.0642,-0.2667 -0.21731,-0.40499 -0.43956,-0.40499 -0.28152,0 -0.43463,0.15804 -0.53834,0.36547 h -0.0148 l -0.0445,-0.30621 h -0.43956 z"
         style="font-style:normal;font-variant:normal;font-weight:600;font-stretch:normal;font-family:'Source Code Pro';-inkscape-font-specification:'Source Code Pro Semi-Bold';text-align:center;text-anchor:middle;fill:#ffffff;stroke:none;stroke-width:0.26458332px"
         id="path957" />
      <path
         d="m 164.31702,247.69474 c 0.32597,0 0.65194,-0.16298 0.90876,-0.36053 h 0.0148 l 0.0445,0.30127 h 0.46426 v -1.43722 c 0,-0.67663 -0.37042,-1.04704 -1.04211,-1.04704 -0.41486,0 -0.81491,0.16298 -1.10631,0.33584 l 0.20744,0.3803 c 0.25188,-0.13829 0.52352,-0.25683 0.79516,-0.25683 0.39511,0 0.55809,0.2025 0.57785,0.47414 -1.19521,0.084 -1.67429,0.3556 -1.67429,0.89887 0,0.42475 0.33585,0.7112 0.80998,0.7112 z m 0.17286,-0.4445 c -0.242,0 -0.43462,-0.0938 -0.43462,-0.31115 0,-0.26176 0.25682,-0.43956 1.12607,-0.49882 v 0.51364 c -0.22225,0.1778 -0.44944,0.29633 -0.69145,0.29633 z"
         style="font-style:normal;font-variant:normal;font-weight:600;font-stretch:normal;font-family:'Source Code Pro';-inkscape-font-specification:'Source Code Pro Semi-Bold';text-align:center;text-anchor:middle;fill:#ffffff;stroke:none;stroke-width:0.26458332px"
         id="path959" />
      <path
         d="m 166.52278,247.63548 h 0.57291 v -1.65453 c 0.22225,-0.22719 0.38523,-0.34078 0.6223,-0.34078 0.3309,0 0.45437,0.1778 0.45437,0.56797 v 1.42734 h 0.57292 v -1.50142 c 0,-0.62724 -0.25683,-0.98284 -0.81492,-0.98284 -0.37042,0 -0.647,0.19261 -0.87418,0.42474 h -0.0198 l -0.0444,-0.36548 h -0.46919 z"
         style="font-style:normal;font-variant:normal;font-weight:600;font-stretch:normal;font-family:'Source Code Pro';-inkscape-font-specification:'Source Code Pro Semi-Bold';text-align:center;text-anchor:middle;fill:#ffffff;stroke:none;stroke-width:0.26458332px"
         id="path961" />
      <path
         d="m 170.77817,247.69474 c 0.34572,0 0.70132,-0.12347 0.98284,-0.36547 l -0.23707,-0.36548 c -0.18768,0.14323 -0.41487,0.2667 -0.69144,0.2667 -0.47908,0 -0.80504,-0.32103 -0.80504,-0.80504 0,-0.48895 0.33584,-0.80998 0.81985,-0.80998 0.21731,0 0.40993,0.079 0.59761,0.23213 l 0.27164,-0.3556 c -0.2025,-0.19262 -0.50871,-0.34078 -0.89888,-0.34078 -0.74083,0 -1.37795,0.46425 -1.37795,1.27423 0,0.80504 0.57785,1.26929 1.33844,1.26929 z"
         style="font-style:normal;font-variant:normal;font-weight:600;font-stretch:normal;font-family:'Source Code Pro';-inkscape-font-specification:'Source Code Pro Semi-Bold';text-align:center;text-anchor:middle;fill:#ffffff;stroke:none;stroke-width:0.26458332px"
         id="path963" />
      <path
         d="m 173.67043,247.69474 c 0.3556,0 0.69144,-0.11853 0.94826,-0.28645 l -0.19261,-0.3556 c -0.21732,0.12347 -0.42475,0.20249 -0.68157,0.20249 -0.44944,0 -0.77047,-0.21731 -0.83467,-0.66675 h 1.78294 c 0.01,-0.0642 0.0247,-0.17286 0.0247,-0.28645 0,-0.67169 -0.40005,-1.15076 -1.12113,-1.15076 -0.65193,0 -1.25448,0.47907 -1.25448,1.26929 0,0.80504 0.58773,1.27423 1.32857,1.27423 z m -0.0593,-2.10396 c 0.34572,0 0.56303,0.19755 0.60254,0.59266 h -1.28905 c 0.0741,-0.39017 0.35066,-0.59266 0.68651,-0.59266 z"
         style="font-style:normal;font-variant:normal;font-weight:600;font-stretch:normal;font-family:'Source Code Pro';-inkscape-font-specification:'Source Code Pro Semi-Bold';text-align:center;text-anchor:middle;fill:#ffffff;stroke:none;stroke-width:0.26458332px"
         id="path965" />
      <path
         d="m 179.66238,247.69474 c 0.34573,0 0.70133,-0.12347 0.98284,-0.36547 l -0.23706,-0.36548 c -0.18768,0.14323 -0.41487,0.2667 -0.69145,0.2667 -0.47907,0 -0.80504,-0.32103 -0.80504,-0.80504 0,-0.48895 0.33585,-0.80998 0.81986,-0.80998 0.21731,0 0.40993,0.079 0.5976,0.23213 l 0.27164,-0.3556 c -0.20249,-0.19262 -0.5087,-0.34078 -0.89888,-0.34078 -0.74083,0 -1.37795,0.46425 -1.37795,1.27423 0,0.80504 0.57785,1.26929 1.33844,1.26929 z"
         style="font-style:normal;font-variant:normal;font-weight:600;font-stretch:normal;font-family:'Source Code Pro';-inkscape-font-specification:'Source Code Pro Semi-Bold';text-align:center;text-anchor:middle;fill:#ffffff;stroke:none;stroke-width:0.26458332px"
         id="path967" />
      <path
         d="m 182.40648,247.69474 c 0.63711,0 1.2199,-0.46425 1.2199,-1.26929 0,-0.80998 -0.58279,-1.27423 -1.2199,-1.27423 -0.63712,0 -1.21991,0.46425 -1.21991,1.27423 0,0.80504 0.58279,1.26929 1.21991,1.26929 z m 0,-0.46425 c -0.39512,0 -0.63218,-0.32103 -0.63218,-0.80504 0,-0.48895 0.23706,-0.80998 0.63218,-0.80998 0.39511,0 0.63217,0.32103 0.63217,0.80998 0,0.48401 -0.23706,0.80504 -0.63217,0.80504 z"
         style="font-style:normal;font-variant:normal;font-weight:600;font-stretch:normal;font-family:'Source Code Pro';-inkscape-font-specification:'Source Code Pro Semi-Bold';text-align:center;text-anchor:middle;fill:#ffffff;stroke:none;stroke-width:0.26458332px"
         id="path969" />
      <path
         d="m 184.1134,247.63548 h 0.55316 v -1.69404 c 0.0889,-0.2025 0.17286,-0.30621 0.30127,-0.30621 0.13829,0 0.19262,0.10865 0.19262,0.32103 v 1.67922 h 0.47413 v -1.69404 c 0.0988,-0.2025 0.17286,-0.30621 0.30621,-0.30621 0.13335,0 0.19262,0.10865 0.19262,0.32103 v 1.67922 h 0.54821 v -1.71874 c 0,-0.48401 -0.19755,-0.76552 -0.53834,-0.76552 -0.28151,0 -0.43956,0.16792 -0.55315,0.40499 -0.0642,-0.2667 -0.21731,-0.40499 -0.43956,-0.40499 -0.28152,0 -0.43462,0.15804 -0.53834,0.36547 h -0.0148 l -0.0444,-0.30621 h -0.43956 z"
         style="font-style:normal;font-variant:normal;font-weight:600;font-stretch:normal;font-family:'Source Code Pro';-inkscape-font-specification:'Source Code Pro Semi-Bold';text-align:center;text-anchor:middle;fill:#ffffff;stroke:none;stroke-width:0.26458332px"
         id="path971" />
      <path
         d="m 187.2526,248.59362 h 0.57291 v -0.76059 l -0.0296,-0.42474 h 0.0148 c 0.19261,0.18274 0.43956,0.28645 0.66181,0.28645 0.55809,0 1.07668,-0.47907 1.07668,-1.3088 0,-0.75071 -0.36054,-1.23472 -0.99272,-1.23472 -0.27658,0 -0.56797,0.14322 -0.77541,0.33584 h -0.0148 l -0.0445,-0.27658 h -0.4692 z m 1.10138,-1.36807 c -0.14817,0 -0.35067,-0.0593 -0.52847,-0.22225 v -1.09149 c 0.19756,-0.2025 0.39018,-0.2914 0.57292,-0.2914 0.39511,0 0.56303,0.28646 0.56303,0.77047 0,0.54821 -0.26176,0.83467 -0.60748,0.83467 z"
         style="font-style:normal;font-variant:normal;font-weight:600;font-stretch:normal;font-family:'Source Code Pro';-inkscape-font-specification:'Source Code Pro Semi-Bold';text-align:center;text-anchor:middle;fill:#ffffff;stroke:none;stroke-width:0.26458332px"
         id="path973" />
      <path
         d="m 190.96472,247.69474 c 0.36054,0 0.63218,-0.1778 0.85936,-0.4445 h 0.0198 l 0.0445,0.38524 h 0.46426 v -2.425 h -0.56798 v 1.63478 c -0.21731,0.2667 -0.38029,0.36053 -0.60748,0.36053 -0.33584,0 -0.45438,-0.1778 -0.45438,-0.56797 v -1.42734 h -0.56797 v 1.50143 c 0,0.62723 0.24694,0.98283 0.80998,0.98283 z"
         style="font-style:normal;font-variant:normal;font-weight:600;font-stretch:normal;font-family:'Source Code Pro';-inkscape-font-specification:'Source Code Pro Semi-Bold';text-align:center;text-anchor:middle;fill:#ffffff;stroke:none;stroke-width:0.26458332px"
         id="path975" />
      <path
         d="m 194.70153,247.69474 c 0.31608,0 0.55809,-0.0642 0.7754,-0.13828 l -0.10865,-0.41487 c -0.15805,0.0593 -0.32597,0.0988 -0.52847,0.0988 -0.41486,0 -0.56303,-0.18274 -0.56303,-0.58279 v -0.99766 h 1.10631 v -0.44944 h -1.10631 v -0.76059 h -0.46919 l -0.0741,0.76059 -0.67169,0.0247 v 0.42474 h 0.647 v 0.99766 c 0,0.6223 0.25188,1.03716 0.99272,1.03716 z"
         style="font-style:normal;font-variant:normal;font-weight:600;font-stretch:normal;font-family:'Source Code Pro';-inkscape-font-specification:'Source Code Pro Semi-Bold';text-align:center;text-anchor:middle;fill:#ffffff;stroke:none;stroke-width:0.26458332px"
         id="path977" />
      <path
         d="m 197.19867,247.63548 h 0.56798 v -2.425 h -1.61996 v 0.44944 h 1.05198 z m 0.24201,-2.8695 c 0.23213,0 0.40499,-0.14816 0.40499,-0.38029 0,-0.22719 -0.17286,-0.38523 -0.40499,-0.38523 -0.23213,0 -0.40499,0.15804 -0.40499,0.38523 0,0.23213 0.17286,0.38029 0.40499,0.38029 z"
         style="font-style:normal;font-variant:normal;font-weight:600;font-stretch:normal;font-family:'Source Code Pro';-inkscape-font-specification:'Source Code Pro Semi-Bold';text-align:center;text-anchor:middle;fill:#ffffff;stroke:none;stroke-width:0.26458332px"
         id="path979" />
      <path
         d="m 199.09822,247.63548 h 0.57291 v -1.65453 c 0.22225,-0.22719 0.38523,-0.34078 0.6223,-0.34078 0.3309,0 0.45437,0.1778 0.45437,0.56797 v 1.42734 h 0.57291 v -1.50142 c 0,-0.62724 -0.25682,-0.98284 -0.81491,-0.98284 -0.37042,0 -0.647,0.19261 -0.87418,0.42474 h -0.0198 l -0.0445,-0.36548 h -0.46919 z"
         style="font-style:normal;font-variant:normal;font-weight:600;font-stretch:normal;font-family:'Source Code Pro';-inkscape-font-specification:'Source Code Pro Semi-Bold';text-align:center;text-anchor:middle;fill:#ffffff;stroke:none;stroke-width:0.26458332px"
         id="path981" />
      <path
         d="m 203.06716,248.70722 c 0.85443,0 1.3977,-0.3803 1.3977,-0.85937 0,-0.42474 -0.32596,-0.59267 -0.9532,-0.59267 h -0.49389 c -0.30127,0 -0.45932,-0.0691 -0.45932,-0.22719 0,-0.0988 0.0494,-0.16792 0.14817,-0.22718 0.12841,0.0444 0.26176,0.0691 0.37042,0.0691 0.54327,0 0.97296,-0.28646 0.97296,-0.82479 0,-0.15805 -0.0741,-0.30622 -0.15805,-0.40005 h 0.5581 v -0.43463 h -0.99272 c -0.11359,-0.0395 -0.23707,-0.0593 -0.38029,-0.0593 -0.5334,0 -0.99766,0.31609 -0.99766,0.87418 0,0.28646 0.13829,0.50377 0.31115,0.62724 v 0.0198 c -0.1778,0.11854 -0.29139,0.29634 -0.29139,0.45438 0,0.2025 0.11853,0.32597 0.24694,0.40499 v 0.0198 c -0.25188,0.13829 -0.38523,0.31609 -0.38523,0.5087 0,0.43462 0.43956,0.647 1.10631,0.647 z m 0.01,-2.19781 c -0.25189,0 -0.45932,-0.1778 -0.45932,-0.48401 0,-0.29633 0.20743,-0.47907 0.45932,-0.47907 0.25188,0 0.45931,0.18274 0.45931,0.47907 0,0.30621 -0.20743,0.48401 -0.45931,0.48401 z m 0.0593,1.82245 c -0.44944,0 -0.70132,-0.12841 -0.70132,-0.34572 0,-0.1136 0.0642,-0.21731 0.23707,-0.31609 0.0988,0.0247 0.21237,0.0346 0.37041,0.0346 h 0.38524 c 0.32596,0 0.48895,0.0494 0.48895,0.23707 0,0.20743 -0.30621,0.39017 -0.78035,0.39017 z"
         style="font-style:normal;font-variant:normal;font-weight:600;font-stretch:normal;font-family:'Source Code Pro';-inkscape-font-specification:'Source Code Pro Semi-Bold';text-align:center;text-anchor:middle;fill:#ffffff;stroke:none;stroke-width:0.26458332px"
         id="path983" />
    </g>
    <g
       aria-label="SciProg"
       style="font-style:normal;font-weight:normal;font-size:4.93888855px;line-height:100%;font-family:sans-serif;text-align:end;letter-spacing:0px;word-spacing:0px;text-anchor:end;fill:#ffffff;fill-opacity:1;stroke:none;stroke-width:0.26458332px;stroke-linecap:butt;stroke-linejoin:miter;stroke-opacity:1"
       id="text886">
      <path
         d="m 111.07634,229.3081 c 4.2672,0 6.604,-2.4892 6.604,-5.2832 0,-2.286 -1.27,-3.7084 -3.4798,-4.5212 l -1.905,-0.7874 c -1.651,-0.6096 -2.5908,-0.889 -2.5908,-1.651 0,-0.762 0.6604,-1.1176 1.6256,-1.1176 1.5748,0 2.5146,0.4064 3.7084,1.1938 l 2.1844,-2.7432 c -1.6002,-1.4986 -3.683,-2.2098 -5.6388,-2.2098 -3.7592,0 -6.2992,2.3114 -6.2992,5.1308 0,2.3876 1.5748,3.8862 3.4798,4.5974 l 2.0574,0.8636 c 1.524,0.635 2.3876,0.8382 2.3876,1.8034 0,0.5334 -0.508,0.9652 -1.8288,0.9652 -1.4986,0 -2.9718,-0.6604 -4.2164,-1.6002 l -2.4892,2.9972 c 1.8542,1.6002 4.2418,2.3622 6.4008,2.3622 z"
         style="font-style:normal;font-variant:normal;font-weight:900;font-stretch:normal;font-size:25.39999962px;line-height:80.00000119%;font-family:'Source Code Pro';-inkscape-font-specification:'Source Code Pro Heavy';text-align:end;letter-spacing:-2.11666656px;text-anchor:end;fill:#ffffff;fill-opacity:1;stroke:none;stroke-width:0.26458332px"
         id="path841" />
      <path
         d="m 125.35816,229.3081 c 1.6764,0 3.7084,-0.5334 5.2832,-1.8288 l -1.7272,-2.7432 c -0.8636,0.5334 -1.8796,1.0668 -3.1242,1.0668 -1.778,0 -3.0734,-1.2192 -3.0734,-3.1496 0,-1.9304 1.3208,-3.1496 3.2258,-3.1496 0.8128,0 1.6256,0.2286 2.5654,0.8636 l 1.9812,-2.6924 c -1.0668,-1.016 -2.8194,-1.6764 -4.8006,-1.6764 -3.937,0 -7.4422,2.4384 -7.4422,6.6548 0,4.2164 3.0988,6.6548 7.112,6.6548 z"
         style="font-style:normal;font-variant:normal;font-weight:900;font-stretch:normal;font-size:25.39999962px;line-height:80.00000119%;font-family:'Source Code Pro';-inkscape-font-specification:'Source Code Pro Heavy';text-align:end;letter-spacing:-2.11666656px;text-anchor:end;fill:#ffffff;fill-opacity:1;stroke:none;stroke-width:0.26458332px"
         id="path843" />
      <path
         d="m 136.49037,229.0033 h 4.3688 v -12.7 h -9.1948 v 3.4036 h 4.826 z m 2.032,-14.4272 c 1.6256,0 2.794,-1.016 2.794,-2.54 0,-1.524 -1.1684,-2.5908 -2.794,-2.5908 -1.6256,0 -2.794,1.0668 -2.794,2.5908 0,1.524 1.1684,2.54 2.794,2.54 z"
         style="font-style:normal;font-variant:normal;font-weight:900;font-stretch:normal;font-size:25.39999962px;line-height:80.00000119%;font-family:'Source Code Pro';-inkscape-font-specification:'Source Code Pro Heavy';text-align:end;letter-spacing:-2.11666656px;text-anchor:end;fill:#ffffff;fill-opacity:1;stroke:none;stroke-width:0.26458332px"
         id="path845" />
      <path
         d="m 144.52378,229.0033 h 4.3688 v -5.2324 h 1.8288 c 3.4544,0 6.604,-1.7526 6.604,-5.7912 0,-4.1656 -3.048,-5.4864 -6.604,-5.4864 h -6.1976 z m 4.3688,-8.6868 v -4.3688 h 1.6256 c 1.6256,0 2.54,0.5588 2.54,2.032 0,1.4732 -0.8128,2.3368 -2.54,2.3368 z"
         style="font-style:normal;font-variant:normal;font-weight:900;font-stretch:normal;font-size:25.39999962px;line-height:80.00000119%;font-family:'Source Code Pro';-inkscape-font-specification:'Source Code Pro Heavy';text-align:end;letter-spacing:-2.11666656px;text-anchor:end;fill:#ffffff;fill-opacity:1;stroke:none;stroke-width:0.26458332px"
         id="path847" />
      <path
         d="m 158.65319,229.0033 h 4.3688 v -6.2992 c 0.9398,-2.1336 2.4892,-2.8956 3.937,-2.8956 0.9144,0 1.4478,0.127 2.2098,0.3556 l 0.8636,-3.6576 c -0.7112,-0.3048 -1.2446,-0.508 -2.413,-0.508 -1.905,0 -3.7338,0.9144 -4.953,2.9972 h -0.1016 l -0.3302,-2.6924 h -3.5814 z"
         style="font-style:normal;font-variant:normal;font-weight:900;font-stretch:normal;font-size:25.39999962px;line-height:80.00000119%;font-family:'Source Code Pro';-inkscape-font-specification:'Source Code Pro Heavy';text-align:end;letter-spacing:-2.11666656px;text-anchor:end;fill:#ffffff;fill-opacity:1;stroke:none;stroke-width:0.26458332px"
         id="path849" />
      <path
         d="m 176.745,229.3081 c 3.3528,0 6.5532,-2.4384 6.5532,-6.6548 0,-4.2164 -3.2004,-6.6548 -6.5532,-6.6548 -3.3528,0 -6.5532,2.4384 -6.5532,6.6548 0,4.2164 3.2004,6.6548 6.5532,6.6548 z m 0,-3.5052 c -1.4732,0 -2.0828,-1.2192 -2.0828,-3.1496 0,-1.9304 0.6096,-3.1496 2.0828,-3.1496 1.4732,0 2.0828,1.2192 2.0828,3.1496 0,1.9304 -0.6096,3.1496 -2.0828,3.1496 z"
         style="font-style:normal;font-variant:normal;font-weight:900;font-stretch:normal;font-size:25.39999962px;line-height:80.00000119%;font-family:'Source Code Pro';-inkscape-font-specification:'Source Code Pro Heavy';text-align:end;letter-spacing:-2.11666656px;text-anchor:end;fill:#ffffff;fill-opacity:1;stroke:none;stroke-width:0.26458332px"
         id="path851" />
      <path
         d="m 189.07101,234.2357 c 4.7498,0 7.7724,-1.8796 7.7724,-4.6228 0,-2.3368 -1.9304,-3.302 -5.2832,-3.302 h -2.159 c -1.4224,0 -1.9812,-0.2032 -1.9812,-0.762 0,-0.3556 0.1016,-0.508 0.4064,-0.7366 0.6096,0.127 1.143,0.1778 1.6002,0.1778 3.0226,0 5.3594,-1.2192 5.3594,-4.2164 0,-0.508 -0.1778,-1.016 -0.3556,-1.3208 h 2.286 v -3.1496 h -5.1308 c -0.635,-0.2032 -1.397,-0.3048 -2.159,-0.3048 -2.9464,0 -5.6134,1.4732 -5.6134,4.6228 0,1.4732 0.762,2.6416 1.7272,3.2512 v 0.1016 c -0.889,0.6096 -1.524,1.524 -1.524,2.3876 0,1.0668 0.5588,1.7272 1.27,2.1844 v 0.1016 c -1.27,0.6096 -1.9304,1.397 -1.9304,2.4384 0,2.286 2.5654,3.1496 5.715,3.1496 z m 0.3556,-11.8364 c -0.8382,0 -1.524,-0.5588 -1.524,-1.778 0,-1.1684 0.6858,-1.7272 1.524,-1.7272 0.8382,0 1.5494,0.5588 1.5494,1.7272 0,1.2192 -0.7112,1.778 -1.5494,1.778 z m 0.3302,9.144 c -1.7018,0 -2.8702,-0.3556 -2.8702,-1.1684 0,-0.3556 0.2032,-0.6096 0.635,-0.9144 0.4318,0.1016 0.9398,0.1524 1.9304,0.1524 h 1.27 c 1.27,0 1.9812,0.1016 1.9812,0.762 0,0.7112 -1.2446,1.1684 -2.9464,1.1684 z"
         style="font-style:normal;font-variant:normal;font-weight:900;font-stretch:normal;font-size:25.39999962px;line-height:80.00000119%;font-family:'Source Code Pro';-inkscape-font-specification:'Source Code Pro Heavy';text-align:end;letter-spacing:-2.11666656px;text-anchor:end;fill:#ffffff;fill-opacity:1;stroke:none;stroke-width:0.26458332px"
         id="path853" />
    </g>
    <path
       style="opacity:1;vector-effect:none;fill:#ffffff;fill-opacity:1;stroke:none;stroke-width:0.26458332;stroke-linecap:round;stroke-linejoin:round;stroke-miterlimit:4;stroke-dasharray:2.11666664, 1.05833332;stroke-dashoffset:0;stroke-opacity:1;paint-order:stroke fill markers"
       d="m 104.67554,231.87988 h 76.05892 v 2.35581 h -76.05892 z"
       id="rect888" />
  </g>
</svg>
